<svg version="1.2" xmlns="http://www.w3.org/2000/svg" viewBox="0 0 5000 2916" width="5000" height="2916">
	<style>
		.s0 { fill: #ffffff } 
	</style>
	<g id="Layer 1">
		<g id="&lt;Group&gt;">
			<path id="&lt;Compound Path&gt;" fill-rule="evenodd" class="s0" d="m1453.16 2916c61.98-201 245.97-401.34 654.97-554.37 16-7.22 32.34-14.38 49.09-21.46 17.07-8.7 34.67-17.31 52.59-25.87 15.85-9.16 31.96-18.29 48.53-27.35 14.06-9.34 28.45-18.67 43.06-27.97 13.97-10.89 28.16-21.78 42.64-32.66q17.44-16.24 35.35-32.54 15.79-18.13 31.89-36.41 13.12-19.4 26.32-39.05 10.08-20.57 19.99-41.46 7.09-22.64 13.75-45.71 3.37-23.57 6.08-47.65c-0.29-17.7-0.89-35.6-1.87-53.74q-4.53-26.74-10.27-54.2-9.96-31.93-21.73-64.87c-8.76-19.47-18.21-39.3-28.09-59.35-14.4-25.09-29.83-50.68-46-76.64-14.99-21.51-30.79-43.39-47.21-65.58-23.35-28.99-48.24-58.69-73.96-88.78-20.83-22.81-42.33-45.92-64.89-69.5l-0.01-0.01-3.05-3.31c-11.56-11.54-22.83-22.94-34.98-34.73v-0.01l-45.01-44.4c-56.86-51.81-112.37-102.33-166.15-151.29-667.52-607.63-1069.51-973.6-1236.41-1217.09h2.16c166.98 242.99 568.63 608.64 1235.52 1215.7 42.54 38.73 86.17 78.44 131.08 119.34l-59.88-59.04c-652.08-642.9-1036.32-1021.79-1171.36-1276h2.04c135.13 253.68 519.07 632.26 1170.64 1274.67q45.93 45.28 93.63 92.32l6.97 6.36c8.09 7.37 15.46 14.43 23.33 21.7q-46.62-50.49-91.41-98.97c-601.36-651.05-954.49-1033.39-1056.93-1296.08h1.98c102.52 262.14 455.37 644.18 1056.33 1294.8q52.81 57.16 108.17 117.13c11.48 10.63 23.07 21.31 34.1 31.74-48.57-58.89-95.56-115.76-140.97-170.69-519.57-628.69-830.45-1004.85-902.87-1272.98h1.94c72.48 267.59 383.12 643.47 902.38 1271.78 48.21 58.33 98.22 118.84 149.99 181.63 13.23 12.52 26.04 24.86 38.78 37.17-71.97-100.26-140.3-194.75-204.88-284.05-417.27-576.99-677.97-937.48-725.56-1206.53h1.93c47.62 268.55 308.12 628.77 725.15 1205.43 66.48 91.92 136.93 189.34 211.03 292.62 13.21 12.77 26.47 25.56 39.12 38.08-94.41-157.13-183.11-301.06-264.67-433.41-310.04-503.12-517.01-839.04-546.41-1102.72h1.93c29.42 263.24 236.23 598.9 546.09 1101.73 82.58 134.01 172.49 279.91 268.35 439.55 13.59 13.49 26.76 26.79 39.82 40.05-107.15-226.79-209.66-427.58-301.37-607.2-149.06-291.94-269.59-528-335.15-729.12-28.61-87.77-46.61-168.82-52.12-245.01h1.95c5.47 76.01 23.42 156.87 51.96 244.42 65.52 201 186.01 436.99 335.03 728.84 92.38 180.93 195.71 383.33 303.72 612.18 13.21 13.4 26.48 26.83 39.07 39.96-99.74-301.53-207.02-560.76-301.05-788-87.73-211.99-163.94-396.15-211.79-560.9-28.62-98.54-46.95-190.07-51.68-276.5h1.93c4.71 86.27 23 177.63 51.56 275.97 47.81 164.65 124.01 348.77 211.71 560.71 94.43 228.18 202.21 488.61 302.31 791.78 13.2 13.81 25.87 27.37 38.5 40.93-64.55-372.44-169.86-687.52-261.45-961.56-50.91-152.29-97.58-291.91-130.68-421.72-25.72-100.9-43.15-195.8-48.09-286.11h1.93c4.92 90.16 22.3 184.91 47.99 285.64 33.07 129.71 79.73 269.32 130.63 421.59 91.85 274.78 197.47 590.82 262.01 964.69 12.62 13.52 25.38 27.1 37.34 40.33 1.09-431.03-100.48-797.42-189.25-1117.56-60.35-217.66-114.73-413.95-127.01-594.69h1.99c12.2 180.58 66.53 376.7 126.83 594.19 88.94 320.75 190.74 687.92 189.31 1120.09 12.51 13.87 24.29 27.42 36.19 41.02l-0.01-0.5v-0.11l0.02-0.1c94.96-473.38-5.97-887.75-95.21-1254.12-43.28-177.7-83.72-344.07-97.87-500.47h1.95c14.1 156.25 54.51 322.48 97.75 500.03 89.28 366.53 190.25 781.08 95.25 1254.84q0.02 1.31 0.01 2.61c11.87 13.54 24.08 27.23 35.23 40.44q0.49-2.6 0.95-5.23l0.02-0.11 0.04-0.1c210.18-497.74 104.44-957.38 9.72-1369.13-29.13-126.65-57.22-248.77-74.77-366.11q-4.31-28.82-7.71-57.24h1.89q3.39 28.29 7.68 56.96c17.53 117.24 45.62 239.34 74.74 365.96 94.78 412.01 200.58 871.93-9.78 1370.2q-0.57 3.33-1.2 6.62c11.7 13.9 22.4 27.37 33.46 40.99 1.34-3.38 2.7-6.74 4.02-10.14l0.04-0.1 0.06-0.09c342.63-508.04 225.31-1013.36 119.18-1470.5-28.74-123.79-56.66-244.05-74.42-359.9h1.91c17.74 115.69 45.63 235.82 74.34 359.48 106.22 457.48 223.62 963.18-119.39 1471.88-1.44 3.71-2.92 7.37-4.38 11.04 10.81 13.3 21.89 26.73 32 39.71q4.4-6.78 8.81-13.62l0.04-0.06 0.07-0.08c488.47-506.82 352.72-1059.4 229.35-1561.61-25.73-104.73-50.92-207.26-69.8-306.74h1.91c18.87 99.33 44.02 201.72 69.71 306.29 123.49 502.66 259.36 1055.74-229.74 1563.28-3.05 4.74-6.1 9.44-9.14 14.15 10.41 13.41 20.11 26.51 29.87 39.63 5.29-5.64 10.55-11.26 15.9-16.92l0.05-0.06 0.05-0.04c644.94-496.36 484.1-1098.56 338.07-1645.34-23.69-88.68-46.98-175.91-66.39-260.99h1.93c19.38 84.92 42.63 171.99 66.27 260.51 146.19 547.33 307.18 1150.15-338.66 1647.26-5.41 5.72-10.73 11.41-16.07 17.11 9.68 13.01 19.25 25.98 28.25 38.68 8.19-6.38 16.33-12.76 24.67-19.16l0.04-0.03 0.05-0.03c810.13-478.52 617.74-1133.19 444.14-1723.88-21.94-74.67-43.59-148.32-62.87-220.46h1.95c19.24 71.97 40.83 145.44 62.72 219.93 173.79 591.34 366.4 1246.73-444.92 1725.99-8.36 6.4-16.51 12.79-24.71 19.19 9.07 12.83 17.85 25.54 26.26 38.06 11.77-6.92 23.46-13.86 35.5-20.77l0.04-0.02 0.03-0.02c982.8-454.71 752.46-1165.03 546.91-1798.91-20.1-61.99-39.96-123.24-58.43-183.45h1.97c18.42 60.02 38.21 121.08 58.25 182.86 205.8 634.63 436.4 1345.78-547.86 1801.2-11.98 6.87-23.62 13.77-35.33 20.67 8.45 12.64 16.43 25.05 24.23 37.39 15.94-7.26 31.92-14.51 48.34-21.69l0.06-0.02c1162.1-426.01 887.42-1195.42 645.97-1871.73-17.89-50.13-35.6-99.75-52.54-148.68h1.99c16.87 48.73 34.5 98.13 52.32 148.04 241.74 677.13 516.75 1447.47-647.05 1874.12-16.34 7.15-32.23 14.36-48.09 21.57 7.76 12.24 15.67 24.56 22.73 36.48 20.58-7.31 41.4-14.57 62.75-21.73l0.04-0.02c1048.67-306 1084.1-877.76 915.9-1454.6-47.97-164.49-112.49-329.41-174.8-488.69-15.16-38.75-30.19-77.17-44.82-115.17h2.01c14.55 37.78 29.49 75.96 44.56 114.48 62.33 159.34 126.87 324.3 174.85 488.86 168.49 577.78 133.03 1150.47-917.14 1456.92-21.21 7.12-41.88 14.33-62.33 21.59 7.2 12.22 13.53 24.04 20.1 35.97q39.01-10.83 79.76-21.29h0.02c1077.38-249.89 1212.58-765.37 1085.81-1312.32-54.32-234.35-156.71-474.52-253.72-702.06-11.76-27.58-23.43-54.97-34.94-82.15h2.05c11.4 26.93 22.97 54.07 34.62 81.41 97.04 227.62 199.47 467.87 253.82 702.38 127.01 547.95-8.33 1064.34-1087.21 1314.57q-40.5 10.39-79.27 21.16c6.48 11.77 13.07 23.58 18.87 35.02 31.82-6.86 64.63-13.48 98.07-19.95 1131.19-206.94 1334.86-690.81 1237.45-1223.66-52.08-284.86-190.18-583.81-318.66-861.94q-11.37-24.61-22.61-48.99h2.07q11.06 23.99 22.25 48.19c128.53 278.23 266.67 577.28 318.8 862.4 97.6 533.87-106.29 1018.64-1238.95 1225.85-33.27 6.44-65.92 13.03-97.58 19.85 5.9 11.72 11.25 23.17 16.51 34.58q57.73-9.53 118.82-18.21c1196.81-170.05 1456.18-633.5 1381.4-1160.14-46.34-326.37-220.95-677.1-380.38-997.34l-7.56-15.18h2.11l7.13 14.34c159.5 320.37 334.18 671.24 380.56 997.92 74.93 527.67-184.71 992-1382.99 1162.26q-60.8 8.64-118.24 18.12c191.25 416.42-52.76 624.46-420.67 723.36h-8.31c370.6-97.95 618.2-305.34 426.6-722.96-12.5 2.07-24.65 4.23-36.99 6.34 160.57 398.03-62.89 608.58-400.37 716.62h-7.65c339.79-107.24 566.27-317.26 405.71-716.22-12.2 2.09-24.55 4.15-36.62 6.28 131.57 381.76-76.62 593.86-387.76 709.94h-6.3c312.95-115.4 523.08-327.23 391.82-709.56-12.23 2.18-24.09 4.44-36.07 6.68 102.99 366.32-92.35 579.6-379.8 702.88h-5.58c288.9-122.7 485.9-335.71 383.21-702.47-12.02 2.26-23.75 4.57-35.59 6.86 75.1 351.8-109.96 565.78-375.95 695.61h-5c267.19-129.33 453.63-343.06 378.83-695.2-11.68 2.26-23.71 4.44-35.14 6.77 47.81 338.12-128.95 552.55-375.39 688.43h-4.46c247.39-135.44 425.29-349.63 377.79-687.99-11.82 2.41-22.97 4.99-34.58 7.45 20.59 324.8-149.72 539.16-378.2 680.54h-3.71c229.12-141.02 400.19-355.2 379.88-680.1-11.43 2.43-22.87 4.86-34.08 7.34-6.29 312.07-171.49 526.2-383.38 672.76h-3.41c212.41-146.23 378.23-360.2 384.77-672.33q-16.93 3.76-33.54 7.59c-33.04 299.64-194.27 513.34-390.7 664.74h-3.13c196.81-151.09 358.51-364.62 391.8-664.26-11.19 2.6-22.03 5.28-33.01 7.92-59.74 287.41-217.99 500.43-399.93 656.34h-2.91c182.19-155.63 340.79-368.48 400.77-655.84-10.74 2.59-21.79 5.1-32.32 7.74-86.37 275.59-242.61 487.88-411.05 648.1h-2.72c168.57-159.97 325.04-372.08 411.61-647.58-10.89 2.74-21.17 5.62-31.84 8.41-113.04 263.71-267.99 474.96-423.63 639.17h-2.59c155.65-163.96 310.71-375 423.9-638.55-10.43 2.74-20.84 5.48-31.06 8.26-139.76 252.14-294.25 462.26-437.9 630.29h-2.46c143.58-167.79 298.04-377.69 437.84-629.62-10.17 2.78-20.32 5.57-30.29 8.39-166.55 240.69-321.25 449.57-453.58 621.23h-2.37c132.15-171.4 286.67-379.99 453.08-620.38-10.03 2.86-19.73 5.79-29.56 8.7-193.35 229.22-348.83 436.63-470.39 611.68h-2.29c121.32-174.76 276.47-381.84 469.4-610.72-9.32 2.77-18.96 5.46-28.1 8.27-220.48 218.05-377.51 424.05-488.99 602.45h-2.19c111.16-178.08 267.67-383.67 487.36-601.32-9.49 2.93-18.36 6-27.65 8.98-247.4 206.7-406.35 410.93-508.16 592.34h-2.12c101.39-180.95 259.51-384.6 505.44-590.77-8.54 2.76-17.15 5.5-25.53 8.29-274.76 195.56-436.25 398.06-528.96 582.48h-2.1c92.19-183.8 252.55-385.55 525.02-580.51-8 2.69-15.86 5.41-23.71 8.13-302.29 184.42-466.77 385.08-550.82 572.38h-2.13c83.31-186.2 245.91-385.6 544.03-569.19-7.04 2.48-13.96 4.98-20.88 7.48-329.6 173.21-497.35 371.79-573.13 561.71h-2.19c74.8-188.19 239.64-384.87 562.3-557.05-4.09 1.5-8.42 2.95-12.46 4.46-359.6 162.37-532.05 359.48-600.24 552.59h-2.3c65.91-187.78 229.95-379.38 568.43-539.23-383.52 150.8-558.79 344.68-619.23 539.23zm922.17-1242.54c-4.35-8.03-9.21-16.31-13.8-24.45-9.04-10.74-17.67-21.3-26.98-32.17 5.64 8.48 11.47 17.05 16.85 25.4 8.27 10.55 15.97 20.82 23.93 31.22zm-31.34-59.33c11.69 12.73 23.39 25.46 34.53 37.94-1.63-3.69-3.22-7.35-4.98-11.12l-0.03-0.05-0.02-0.05q-1.86-5.68-3.73-11.35c-12.24-12.75-25.11-25.78-37.94-38.81l5.34 11.36c2.4 4.08 4.6 8.08 6.83 12.08zm45.72 86.92c-3.07-5.86-5.98-11.63-9.13-17.54-6.45-8.49-12.77-16.93-19.3-25.47 3.3 5.21 6.44 10.34 9.69 15.52 6.52 9.3 12.49 18.33 18.74 27.49zm27.82 41.42c-2.96-7.31-5.81-14.55-8.89-21.92-6.75-9.2-14.08-18.67-21.28-28.09 4.02 7.6 7.9 15.12 11.78 22.64 6.21 9.16 12.51 18.36 18.39 27.37zm-11.63-28.68c-3.44-8.13-7.14-16.41-10.79-24.66-8.6-10.55-17.83-21.4-26.94-32.18 4.74 8.53 9.44 17.05 13.96 25.48 8.05 10.51 16.15 21.05 23.77 31.36zm12.51-13.26c-11.01-12.77-21.86-25.46-33.35-38.45q5.92 13.06 11.64 26c10.18 12.51 19.75 24.74 29.52 37.06q-3.81-12.26-7.81-24.61zm10.9 70.99c-2.59-6.73-5.58-13.67-8.3-20.46-4.41-6.83-9.25-13.86-13.99-20.84 3.42 6.77 6.82 13.53 10.11 20.23 4.03 7.01 8.3 14.13 12.18 21.07zm21.03 38.96c-1.82-7.15-3.8-14.4-5.75-21.63-5.94-9.58-11.81-19.13-17.89-28.78 2.82 7.17 5.61 14.32 8.29 21.42 5.34 9.77 10.19 19.31 15.35 28.99zm-15.37-56.32c-2.3-7.9-4.64-15.83-7.1-23.82-9.42-11.96-18.53-23.78-28.33-35.91 3.69 8.44 7.24 16.8 10.74 25.13 8.54 11.68 16.48 23.08 24.69 34.6zm7.81 28.15c-2.06-7.54-4.12-15.08-6.3-22.69-7.79-11.02-15.3-21.9-23.36-33.04 3.27 7.89 6.41 15.71 9.54 23.52 6.99 10.87 13.39 21.46 20.12 32.21zm-6.27 8.93c-1.1-2.98-2.09-5.9-3.22-8.9-1.93-3.5-4.01-7.07-6.06-10.64 3.11 6.52 6.29 13.08 9.28 19.54zm19.78 44.38c-1.4-5.92-2.73-11.8-4.21-17.77-4.11-7.82-8.28-15.66-12.43-23.5 1.91 5.19 3.75 10.33 5.6 15.49 3.89 8.7 7.32 17.16 11.04 25.78zm14.87 34.72c-0.63-6.61-1.24-13.21-1.95-19.87-4.28-8.54-8.98-17.28-13.62-25.99q2.61 10.69 5.04 21.28c3.59 8.23 7.25 16.51 10.53 24.58zm-9.23-78.03c-1.09-7.61-2.12-15.18-3.34-22.87-8.68-11.42-18.17-23.21-27.41-34.89 2.47 8.13 4.69 16.12 7 24.16 8.04 11.26 16.21 22.58 23.75 33.6zm3.59 26.57q-1.43-11.18-3.03-22.47c-7.18-10.55-15.11-21.45-22.79-32.24q3.41 11.97 6.61 23.82c6.51 10.35 13.14 20.76 19.21 30.89zm3.17 26.28q-1.18-10.74-2.54-21.58c-5.65-9.51-11.93-19.33-18.03-29.05 2.01 7.58 3.86 15.07 5.72 22.58 5.05 9.4 10.2 18.85 14.85 28.05zm-7.4 11.57c-0.75-3.4-1.65-6.88-2.43-10.29-1.06-2.5-2.16-5.01-3.21-7.49 2.04 6.01 3.7 11.82 5.64 17.78zm12.17 38.35c-0.45-5.88-1.09-11.88-1.62-17.81-2.73-6.82-5.67-13.74-8.64-20.69 1.37 6.19 2.62 12.32 3.9 18.45 2.15 6.7 4.41 13.45 6.36 20.05zm1.1 18.11c-0.2-3.09-0.34-6.13-0.56-9.23-1.21-4.18-2.39-8.36-3.71-12.59 1.44 7.28 2.96 14.61 4.27 21.82zm12.92-82.23c0.14-7.23 0.43-14.35 0.49-21.63-8.96-12.25-17.55-24.33-26.94-36.79 1.21 7.78 2.15 15.39 3.25 23.09 8.1 11.95 15.48 23.56 23.2 35.33zm-0.64 25.02c0.25-7.16 0.4-14.39 0.55-21.62-7.48-11.47-14.7-22.81-22.53-34.45 1.07 7.67 2.14 15.34 3.09 22.93 6.61 11.2 12.59 22.09 18.89 33.14zm-1.09 24.59c0.35-6.94 0.74-13.85 1-20.85-5.99-10.57-11.86-21.08-18.11-31.77 0.9 7.36 1.62 14.61 2.4 21.9 5.13 10.35 9.81 20.48 14.71 30.72zm-1.39 24.29q0.65-10.11 1.17-20.32c-4.6-9.68-9.14-19.32-13.94-29.1q1.12 10.69 2.09 21.29c3.71 9.45 7.13 18.76 10.68 28.13zm-1.65 23.87q0.74-9.55 1.39-19.18c-3.19-8.49-6.4-16.99-9.71-25.55 0.56 6.56 1.01 13.05 1.48 19.55 2.36 8.44 4.56 16.79 6.84 25.18zm-1.99 22.2c0.51-5.57 1.04-11.12 1.49-16.72q-2.84-10.62-5.78-21.3 0.55 8.31 1 16.54c1.18 7.21 2.19 14.31 3.29 21.48zm-1.7 18.96c0.37-3.64 0.63-7.38 0.99-11.05-0.47-3.14-0.99-6.31-1.45-9.46 0.28 6.92 0.28 13.66 0.46 20.51zm32.51-102.16c1.39-6.81 2.87-13.52 4.21-20.37-8.14-11.59-17.19-23.62-25.9-35.48-0.07 7.36-0.4 14.54-0.55 21.85 7.49 11.37 15.27 22.88 22.24 34zm-4.79 23.21c1.45-6.74 2.81-13.58 4.21-20.38-6.82-10.94-14.42-22.25-21.75-33.43-0.16 7.35-0.29 14.73-0.55 22.01 6.1 10.64 12.43 21.39 18.09 31.8zm-5.15 22.84c1.5-6.61 3.07-13.14 4.51-19.79-5.5-10.2-11.61-20.7-17.55-31.11-0.27 7.13-0.75 14.13-1.11 21.2 4.79 9.94 9.75 19.96 14.15 29.7zm-5.28 22.77c1.54-6.49 3.04-13.03 4.54-19.57-4.27-9.5-9.01-19.24-13.64-28.92-0.38 7.05-0.74 14.12-1.21 21.12 3.51 9.16 7.13 18.38 10.31 27.37zm-5.49 22.4c1.56-6.25 3.13-12.49 4.65-18.78-3.04-8.66-6.41-17.49-9.73-26.31-0.47 6.75-1.07 13.41-1.62 20.1 2.31 8.37 4.67 16.77 6.7 24.99zm-5.61 21.78q2.31-8.82 4.56-17.7c-1.9-7.78-4.01-15.68-6.14-23.59q-0.81 9.68-1.72 19.28c1.16 7.37 2.35 14.76 3.3 22.01zm-5.49 20.86c1.41-5.19 2.76-10.43 4.14-15.64q-1.22-9.59-2.66-19.31c-0.58 5.67-1.25 11.27-1.88 16.89 0.16 6.04 0.38 12.11 0.4 18.06zm-4.59 16.2c0.85-3.04 1.73-6.05 2.58-9.1 0-4.02 0.06-8.01 0.01-12.07-0.85 7.06-1.65 14.17-2.59 21.17zm58.74-112.78c2.63-6.38 5.29-12.72 7.9-19.12-8.11-12.08-15.99-24.06-24.56-36.35-1.36 6.9-2.85 13.69-4.25 20.56 7.33 11.81 13.98 23.29 20.91 34.91zm-8.84 21.38c2.66-6.33 5.27-12.75 7.9-19.12-6.77-11.41-13.39-22.73-20.55-34.33-1.42 6.9-2.79 13.83-4.27 20.66 5.93 11.07 11.32 21.88 16.92 32.79zm-9.05 21.1c2.68-6.26 5.4-12.45 8.06-18.75-5.44-10.66-10.79-21.27-16.56-32.09-1.48 6.75-3.11 13.36-4.64 20.06 4.61 10.38 8.8 20.54 13.14 30.78zm-9.09 21.14c2.7-6.19 5.36-12.44 8.03-18.67-4.21-9.98-8.35-19.93-12.82-30.05-1.54 6.7-3.06 13.43-4.66 20.08 3.33 9.64 6.33 19.11 9.45 28.64zm-9.21 20.87c2.68-6.06 5.39-12.09 8.06-18.19-2.99-9.2-5.94-18.39-9.14-27.7-1.58 6.5-3.25 12.91-4.88 19.37 2.11 8.91 3.99 17.7 5.96 26.52zm-9.25 20.7q3.98-8.85 7.94-17.76c-1.86-8.44-3.7-16.86-5.7-25.38-1.61 6.33-3.22 12.67-4.88 18.96 0.95 8.11 1.78 16.13 2.64 24.18zm-9.19 20.27q3.84-8.39 7.65-16.83-1.15-11.15-2.45-22.4c-1.58 5.93-3.22 11.8-4.84 17.68-0.1 7.2-0.23 14.37-0.36 21.55zm-8.85 19.1q3.45-7.41 6.88-14.86 0.19-9.32 0.31-18.68-2.17 7.77-4.38 15.5c-0.91 6.03-1.88 12.02-2.81 18.04zm-7.19 15.51c1.45-3.08 2.87-6.22 4.32-9.32 0.49-3.1 0.96-6.24 1.45-9.34-1.86 6.28-3.86 12.42-5.77 18.66zm91.85-124.23q5.76-8.83 11.53-17.69c-7.43-11.6-15.57-23.54-23.54-35.4-2.64 6.45-5.32 12.84-7.97 19.26 6.78 11.33 13.71 22.74 19.98 33.83zm-12.73 19.54c3.82-5.84 7.66-11.75 11.49-17.63-6.19-10.98-13-22.26-19.67-33.48-2.66 6.44-5.29 12.92-7.98 19.3 5.49 10.65 11.1 21.37 16.16 31.81zm-12.77 19.46c3.82-5.84 7.65-11.64 11.48-17.5-4.97-10.33-10.47-20.91-15.87-31.44-2.69 6.37-5.45 12.64-8.16 18.98 4.27 10.03 8.65 20.12 12.55 29.96zm-12.77 19.44c3.81-5.77 7.62-11.6 11.43-17.4-3.83-9.71-8.09-19.65-12.27-29.54-2.72 6.33-5.42 12.7-8.16 18.98 3.08 9.36 6.24 18.77 9 27.96zm-12.75 19.33c3.78-5.73 7.55-11.41 11.33-17.16-2.69-9.04-5.73-18.25-8.73-27.45-2.73 6.23-5.51 12.37-8.26 18.57 1.95 8.72 3.96 17.47 5.66 26.04zm-12.72 19.22q5.58-8.42 11.17-16.88c-1.64-8.39-3.54-16.92-5.43-25.45-2.73 6.14-5.46 12.3-8.21 18.4 0.88 8.01 1.8 16.05 2.47 23.93zm-12.61 19q5.43-8.16 10.87-16.36c-0.64-7.63-1.45-15.38-2.27-23.12-2.7 5.94-5.42 11.84-8.14 17.75-0.11 7.28-0.19 14.57-0.46 21.73zm-12.38 18.58q5.14-7.71 10.3-15.46c0.27-6.81 0.43-13.7 0.57-20.61q-3.91 8.51-7.85 16.96c-0.97 6.39-1.93 12.8-3.02 19.11zm-11.77 17.64c3.03-4.52 6.06-9.08 9.09-13.62q1.48-8.42 2.83-16.93-3.55 7.54-7.13 15.05c-1.58 5.18-3.14 10.38-4.79 15.5zm-9.3 13.86l5.38-8.02c1.07-3.27 2.15-6.52 3.19-9.82-2.86 5.95-5.69 11.93-8.57 17.84zm129.2-130.24q7.53-8.12 15.1-16.26c-7.13-11.75-14.25-23.5-21.88-35.48q-5.8 8.91-11.59 17.8c6.44 11.47 12.36 22.68 18.37 33.94zm-16.45 17.78c4.97-5.39 10-10.81 15.02-16.23-5.93-11.13-11.84-22.25-18.19-33.59-3.86 5.93-7.73 11.88-11.58 17.77 5.19 10.82 9.92 21.41 14.75 32.05zm-16.36 17.84c4.96-5.42 9.91-10.82 14.9-16.25-4.74-10.5-9.47-21-14.58-31.68-3.87 5.92-7.73 11.78-11.6 17.67 3.99 10.21 7.59 20.21 11.28 30.26zm-16.29 17.75c4.88-5.35 9.87-10.75 14.8-16.13-3.62-9.89-7.21-19.78-11.13-29.84-3.85 5.87-7.72 11.78-11.56 17.63 2.81 9.55 5.31 18.92 7.89 28.34zm-16.17 17.82c4.88-5.37 9.7-10.72 14.62-16.12-2.52-9.25-5.01-18.49-7.76-27.88-3.86 5.85-7.69 11.62-11.54 17.44 1.71 8.94 3.16 17.73 4.68 26.56zm-16.07 17.71c4.78-5.28 9.61-10.59 14.42-15.89-1.47-8.65-2.92-17.28-4.58-26.03q-5.73 8.67-11.44 17.3c0.65 8.27 1.09 16.43 1.6 24.62zm-15.9 17.67c4.7-5.22 9.38-10.45 14.11-15.69-0.48-7.96-0.94-15.92-1.55-23.97-3.77 5.68-7.52 11.31-11.28 16.97-0.36 7.61-0.84 15.14-1.28 22.69zm-15.67 17.49q6.8-7.6 13.64-15.22c0.44-7.27 0.88-14.52 1.23-21.85q-5.5 8.27-10.98 16.49c-1.26 6.89-2.59 13.72-3.89 20.58zm-15.26 17.09q6.39-7.18 12.82-14.38 1.86-9.6 3.65-19.27-5.22 7.81-10.42 15.58-3.02 9.04-6.05 18.07zm-14.39 16.22q5.58-6.3 11.2-12.63 2.65-7.87 5.28-15.76-4.58 6.83-9.14 13.63c-2.44 4.94-4.89 9.83-7.34 14.76zm-11.27 22.7q7.45-6.62 14.97-13.24c2.03-5.8 4-11.66 5.97-17.53q-6.45 7.27-12.86 14.51c-2.68 5.43-5.36 10.88-8.08 16.26zm172.12-145.16c6.12-4.91 12.34-9.83 18.51-14.75-6.55-11.43-13.58-23.08-20.67-34.76q-7.61 8.18-15.18 16.35c5.95 11.13 11.87 22.26 17.34 33.16zm-19.97 16.1c6.07-4.93 12.2-9.86 18.34-14.79-5.41-10.83-11.26-21.87-17.15-32.92-5.04 5.45-10.1 10.9-15.11 16.34 4.78 10.53 9.56 21.05 13.92 31.37zm-19.79 16.19q9.03-7.42 18.15-14.85c-4.31-10.24-9.01-20.68-13.74-31.13-5.03 5.47-10.01 10.92-15.01 16.37 3.65 9.93 7.31 19.87 10.6 29.61zm-19.64 16.11c5.91-4.91 12-9.83 17.98-14.75-3.25-9.66-6.84-19.5-10.44-29.34-4.97 5.42-10.01 10.88-14.94 16.28 2.56 9.32 5.14 18.66 7.4 27.81zm-19.42 16.31c5.9-4.96 11.75-9.92 17.72-14.88-2.22-9.07-4.74-18.3-7.25-27.52-4.98 5.45-9.86 10.87-14.8 16.32 1.52 8.73 3.06 17.49 4.33 26.08zm-19.25 16.16c5.75-4.88 11.65-9.78 17.47-14.67-1.23-8.49-2.72-17.13-4.2-25.76-4.88 5.39-9.81 10.79-14.66 16.16 0.52 8.13 1.08 16.27 1.39 24.27zm-19.02 16.28c5.71-4.9 11.36-9.79 17.13-14.69-0.3-7.88-0.8-15.88-1.29-23.88-4.85 5.38-9.63 10.73-14.45 16.09-0.42 7.52-0.81 15.07-1.39 22.48zm-18.74 16.16c5.51-4.78 11.09-9.57 16.66-14.36 0.58-7.27 1.01-14.65 1.44-22.02-4.72 5.27-9.46 10.53-14.15 15.78-1.29 6.89-2.55 13.8-3.95 20.6zm-18.38 16.01q7.95-6.97 15.99-13.95c1.37-6.59 2.64-13.27 3.91-19.94q-6.87 7.69-13.68 15.36c-2.06 6.2-4.09 12.42-6.22 18.53zm-17.5 5.39c2.02-2.28 4.07-4.57 6.09-6.86q2.01-4.06 4.03-8.11c-3.38 5.02-6.75 9.98-10.12 14.97zm-16.93 25.07c4.17-3.74 8.49-7.49 12.7-11.23q3.57-7.1 7.12-14.26-5.58 6.31-11.12 12.6c-2.9 4.3-5.81 8.62-8.7 12.89zm-14.57 21.42c5.43-3.93 11.06-7.86 16.56-11.79q4.18-8.13 8.35-16.28c-4.94 4.41-9.9 8.82-14.79 13.21-3.38 4.97-6.74 9.91-10.12 14.86zm219.85-146.63c7.19-4.44 14.59-8.87 21.88-13.3q-9.16-16.99-19.08-34.36c-6.2 4.95-12.46 9.89-18.6 14.83 5.52 11.07 10.72 21.98 15.8 32.83zm-23.34 14.53q10.72-6.74 21.59-13.46c-5.02-10.77-10.22-21.62-15.69-32.6-6.17 4.97-12.34 9.93-18.43 14.89 4.4 10.51 8.5 20.86 12.53 31.17zm-23.11 14.6q10.62-6.75 21.37-13.49c-3.98-10.23-8.08-20.52-12.43-30.94q-9.19 7.48-18.28 14.95c3.32 9.93 6.34 19.71 9.34 29.48zm-22.86 14.58c6.94-4.49 14.07-8.98 21.12-13.47-2.96-9.68-5.99-19.39-9.26-29.23-6.03 4.96-12.16 9.93-18.13 14.88 2.27 9.37 4.26 18.59 6.27 27.82zm-22.57 14.82c6.93-4.55 13.79-9.11 20.8-13.66-1.97-9.13-3.97-18.28-6.2-27.55-6.03 5.02-11.94 10.02-17.9 15.04 1.24 8.8 2.26 17.48 3.3 26.17zm-22.31 14.65c6.72-4.49 13.68-8.97 20.5-13.46-1.03-8.59-2.05-17.17-3.27-25.87-5.9 4.95-11.88 9.92-17.7 14.86 0.27 8.23 0.34 16.33 0.47 24.47zm-22.01 14.94c6.72-4.56 13.3-9.13 20.11-13.69-0.11-8.02-0.21-16.02-0.47-24.13-5.88 5-11.61 9.99-17.43 14.99-0.65 7.67-1.45 15.23-2.21 22.83zm-21.66 14.79c6.46-4.47 13.06-8.93 19.62-13.39 0.75-7.46 1.52-14.9 2.17-22.44-5.71 4.91-11.44 9.83-17.08 14.73-1.52 7.08-3.14 14.07-4.71 21.1zm-21.29 14.81q9.44-6.63 19-13.26c1.55-6.85 3.12-13.69 4.6-20.59q-8.36 7.29-16.63 14.56c-2.3 6.46-4.65 12.86-6.97 19.29zm-20.82 14.76q9.01-6.43 18.13-12.86c2.25-6.19 4.5-12.37 6.72-18.59q-8.02 7.06-15.95 14.11c-2.96 5.8-5.93 11.55-8.9 17.34zm-17.9 4.14c2.24-2.02 4.44-4.04 6.69-6.06l4.66-6.88q-5.7 6.48-11.35 12.94zm-20.77 23.86c4.75-3.49 9.42-6.98 14.22-10.48l8.72-12.81q-6.49 5.87-12.92 11.73c-3.37 3.87-6.67 7.7-10.02 11.56zm-17.39 20.08c6.14-3.72 12.18-7.45 18.41-11.17 3.33-4.87 6.67-9.79 10.01-14.7-5.59 4.08-11.1 8.17-16.62 12.25-3.95 4.54-7.9 9.1-11.8 13.62zm271.39-146.61c8.18-3.95 16.65-7.86 24.98-11.79-5.61-11.15-11.42-22.41-17.55-33.81-7.31 4.45-14.75 8.89-21.97 13.35q7.61 16.3 14.54 32.25zm-26.49 13.02c8.2-4.04 16.28-8.1 24.59-12.12q-6.86-15.87-14.39-32.08-10.92 6.77-21.7 13.54c4.02 10.32 7.88 20.55 11.5 30.66zm-26.21 13c8.04-4.04 16.2-8.05 24.35-12.08-3.58-10.05-7.4-20.22-11.38-30.48q-10.81 6.79-21.49 13.58c2.99 9.73 5.88 19.43 8.52 28.98zm-25.87 13.09c7.92-4.07 15.97-8.12 24.02-12.17-2.62-9.49-5.46-19.12-8.41-28.8-7.1 4.53-14.27 9.05-21.27 13.59 2 9.19 3.96 18.35 5.66 27.38zm-25.52 13.31c7.86-4.11 15.68-8.24 23.66-12.34-1.68-8.97-3.59-18.07-5.57-27.2-7.07 4.59-14 9.19-20.97 13.78 1.04 8.64 2.08 17.27 2.88 25.76zm-25.19 13.15c7.61-4.07 15.56-8.1 23.29-12.16-0.78-8.43-1.78-16.99-2.8-25.56-6.88 4.54-13.93 9.06-20.72 13.6 0.14 8.08 0.3 16.17 0.23 24.12zm-24.84 13.6c7.66-4.18 15.1-8.38 22.88-12.55 0.08-7.89-0.05-15.91-0.17-23.92-6.91 4.63-13.57 9.27-20.38 13.91-0.74 7.55-1.44 15.12-2.33 22.56zm-24.43 13.4c7.35-4.1 14.89-8.17 22.35-12.26 0.89-7.36 1.62-14.84 2.36-22.31-6.67 4.55-13.41 9.09-19.98 13.64-1.56 7-3.06 14.03-4.73 20.93zm-24.05 13.58c7.23-4.11 14.44-8.23 21.78-12.33 1.65-6.81 3.17-13.73 4.72-20.62-6.58 4.55-13.05 9.11-19.53 13.67-2.31 6.44-4.59 12.92-6.97 19.28zm-23.64 13.64q10.45-6.08 21.05-12.14c2.34-6.24 4.6-12.57 6.87-18.88q-9.5 6.69-18.87 13.38c-3.01 5.9-6.01 11.81-9.05 17.64zm-22.85 13.29c6.5-3.86 13.23-7.7 19.83-11.55 2.94-5.63 5.84-11.33 8.75-17.02-5.98 4.28-11.99 8.57-17.89 12.86q-5.36 7.89-10.69 15.71zm-18.43 3.42c2.2-1.64 4.44-3.27 6.65-4.9l5.25-6.06q-5.98 5.48-11.9 10.96zm-23.89 22.25c4.85-2.99 9.87-5.97 14.78-8.96 3.35-3.89 6.76-7.82 10.16-11.73-4.3 3.2-8.77 6.4-13.03 9.6-3.97 3.7-7.97 7.4-11.91 11.09zm-19.88 18.78c6.27-3.23 12.79-6.42 19.15-9.64 3.86-4.51 7.69-9 11.56-13.51-5.82 3.56-11.85 7.1-17.59 10.67-4.42 4.17-8.74 8.32-13.12 12.48zm325.27-144.11c9.17-3.49 18.72-6.91 28.11-10.37-5.07-10.87-10.68-22.01-16.28-33.15-8.36 3.95-16.88 7.88-25.09 11.84 4.61 10.65 9.11 21.26 13.26 31.68zm-29.54 11.61c9.24-3.61 18.22-7.26 27.59-10.85-4.11-10.37-8.62-20.94-13.2-31.55-8.35 4.05-16.47 8.12-24.71 12.18 3.62 10.17 7.09 20.26 10.32 30.22zm-29.24 11.5c8.98-3.6 18.18-7.17 27.31-10.74-3.19-9.9-6.66-19.95-10.25-30.05-8.19 4.04-16.4 8.08-24.47 12.14q3.95 14.45 7.41 28.65zm-28.81 11.7c8.9-3.66 17.85-7.32 26.9-10.96q-3.44-14.1-7.36-28.46c-8.1 4.07-16.2 8.15-24.17 12.25 1.69 9.14 3.2 18.17 4.63 27.17zm-28.4 11.88c8.79-3.7 17.57-7.41 26.5-11.09-1.41-8.93-2.91-17.91-4.59-26.99-8.04 4.13-15.92 8.29-23.84 12.44 0.78 8.62 1.36 17.14 1.93 25.64zm-27.98 11.76c8.51-3.68 17.4-7.3 26.07-10.96-0.56-8.43-1.15-16.9-1.91-25.45-7.8 4.09-15.84 8.15-23.51 12.26-0.1 8.12-0.39 16.13-0.65 24.15zm-27.57 12.28c8.56-3.8 16.9-7.63 25.61-11.41 0.27-7.95 0.54-15.89 0.65-23.94-7.86 4.21-15.4 8.46-23.14 12.69-0.95 7.61-2.06 15.12-3.12 22.66zm-27.08 12.05c8.21-3.74 16.68-7.43 25.03-11.14 1.06-7.46 2.14-14.9 3.09-22.43-7.56 4.15-15.23 8.28-22.67 12.44-1.76 7.1-3.62 14.09-5.45 21.13zm-26.64 12.34c8.13-3.78 16.18-7.59 24.44-11.36 1.81-6.94 3.64-13.86 5.38-20.86-7.51 4.2-14.84 8.42-22.22 12.63-2.5 6.57-5.07 13.06-7.6 19.59zm-26.12 12.38q11.73-5.62 23.65-11.2c2.5-6.42 5.01-12.81 7.48-19.27q-10.88 6.21-21.58 12.44c-3.17 6.05-6.37 12.01-9.55 18.03zm-25.39 12.19c7.39-3.64 15.03-7.23 22.55-10.84 3.1-5.87 6.23-11.72 9.33-17.61-6.95 4.06-13.91 8.11-20.74 12.18-3.72 5.44-7.43 10.83-11.14 16.27zm-25.01 12.59c7.18-3.61 14.22-7.24 21.51-10.84q5.37-7.82 10.74-15.65c-6.71 4-13.26 8.02-19.86 12.04-4.16 4.83-8.25 9.63-12.39 14.45zm-17.07 1.39c1.89-1.18 3.68-2.38 5.58-3.56 1.43-1.34 2.89-2.69 4.33-4.03q-4.98 3.8-9.91 7.59zm-28.44 22.03c5.48-2.89 10.74-5.82 16.29-8.7 3.52-3.35 6.99-6.7 10.51-10.05-5.34 3.35-10.52 6.71-15.78 10.07-3.74 2.89-7.34 5.78-11.02 8.68zm-22.19 17.66c6.92-3.08 13.58-6.21 20.61-9.27 4.23-4.08 8.54-8.18 12.84-12.28-6.63 3.46-12.98 6.97-19.5 10.44-4.65 3.71-9.33 7.41-13.95 11.11zm381.91-140.25c10.1-3.05 20.48-6.04 30.81-9.04-4.63-10.85-9.17-21.65-14.3-32.74-9.42 3.47-19.01 6.91-28.21 10.41 4.19 10.61 7.95 20.99 11.7 31.37zm-32.37 10.1c10.14-3.15 20.04-6.34 30.32-9.46-3.72-10.34-7.44-20.68-11.6-31.25-9.41 3.6-18.44 7.27-27.71 10.9 3.23 10.06 6.14 19.95 8.99 29.81zm-31.99 9.98c9.83-3.15 19.97-6.24 29.98-9.35-2.83-9.82-5.7-19.67-8.91-29.68-9.18 3.59-18.42 7.17-27.45 10.78 2.31 9.52 4.4 18.92 6.38 28.25zm-31.48 10.34c9.81-3.24 19.52-6.51 29.5-9.72-1.96-9.3-4.02-18.65-6.3-28.12-9.12 3.66-18.1 7.34-27.06 11.03q2.14 13.52 3.86 26.81zm-31.04 10.45c9.63-3.28 19.29-6.55 29.08-9.79q-1.69-13.22-3.79-26.68c-8.99 3.7-17.84 7.44-26.68 11.16 0.56 8.5 1.07 16.96 1.39 25.31zm-30.55 10.42c9.36-3.28 19.05-6.51 28.59-9.76-0.32-8.31-0.8-16.72-1.34-25.17-8.75 3.7-17.69 7.36-26.28 11.08-0.26 7.99-0.52 15.98-0.97 23.85zm-30.11 10.92c9.39-3.39 18.55-6.83 28.11-10.19 0.45-7.83 0.74-15.77 1.01-23.71-8.78 3.81-17.22 7.67-25.85 11.51-1.05 7.49-2.07 15.01-3.27 22.39zm-29.56 10.73c9-3.36 18.32-6.65 27.49-9.97 1.2-7.34 2.24-14.8 3.29-22.24-8.45 3.76-17.03 7.49-25.32 11.27-1.8 7-3.55 14.04-5.46 20.94zm-29.14 11.14c8.97-3.45 17.8-6.92 26.94-10.34 1.9-6.85 3.66-13.81 5.46-20.76-8.42 3.84-16.57 7.73-24.84 11.6-2.51 6.51-4.98 13.07-7.56 19.5zm-28.63 11.19q12.98-5.15 26.22-10.25c2.55-6.36 5.01-12.83 7.5-19.27q-12.17 5.7-24.14 11.42c-3.19 6.05-6.37 12.12-9.58 18.1zm-27.9 11.09c8.27-3.37 16.79-6.7 25.21-10.04 3.16-5.88 6.29-11.85 9.43-17.8-7.81 3.76-15.63 7.51-23.29 11.29-3.79 5.53-7.58 11.06-11.35 16.55zm-27.51 11.58c8.1-3.41 16.05-6.85 24.3-10.23 3.68-5.35 7.38-10.75 11.07-16.15-7.6 3.76-15.01 7.55-22.48 11.33q-6.48 7.54-12.89 15.05zm-26.18 11.01c7.29-3.16 14.9-6.26 22.32-9.39 4.1-4.81 8.25-9.65 12.4-14.48-6.83 3.46-13.9 6.9-20.62 10.38q-7.09 6.75-14.1 13.49zm-19.5 2.34q3.5-1.89 7.02-3.76 2.26-1.8 4.51-3.6c-3.8 2.46-7.77 4.9-11.53 7.36zm-28.79 19.3q7.88-3.6 15.86-7.18c3.86-3.11 7.8-6.22 11.72-9.33-4.88 2.63-9.89 5.24-14.71 7.88-4.27 2.88-8.6 5.75-12.87 8.63zm-24.89 16.84c7.02-2.74 14.14-5.45 21.29-8.17 4.48-3.67 8.87-7.34 13.4-11.02-6.44 2.92-13 5.81-19.33 8.75q-7.78 5.21-15.36 10.44zm441.11-134.94q16.61-3.96 33.6-7.84c-4.04-10.42-8.92-21.25-13.52-31.95-10.37 3.02-20.78 6.02-30.92 9.08 3.73 10.3 7.59 20.66 10.84 30.71zm-35.2 8.68c11.05-2.72 21.89-5.48 33.1-8.16-3.22-10.01-7.09-20.34-10.79-30.59-10.33 3.13-20.27 6.34-30.44 9.5 2.84 9.82 5.7 19.65 8.13 29.25zm-34.74 8.57c10.68-2.74 21.79-5.38 32.69-8.06-2.4-9.56-5.28-19.36-8.1-29.14-10.05 3.13-20.24 6.23-30.11 9.4 1.97 9.34 3.89 18.64 5.52 27.8zm-34.15 9.08c10.75-2.85 21.19-5.77 32.14-8.58-1.62-9.11-3.54-18.39-5.49-27.68-10.04 3.23-19.79 6.52-29.65 9.78 1.13 8.9 2.15 17.74 3 26.48zm-33.65 9.1q15.69-4.31 31.67-8.56c-0.84-8.7-1.87-17.51-2.98-26.36-9.85 3.26-19.58 6.55-29.25 9.84 0.3 8.43 0.47 16.78 0.56 25.08zm-33.1 9.18c10.23-2.92 20.71-5.78 31.13-8.65q-0.12-12.37-0.56-24.94c-9.61 3.28-19.35 6.53-28.78 9.85-0.5 7.98-1.14 15.86-1.79 23.74zm-32.57 9.63c10.2-3.01 20.19-6.07 30.58-9.04 0.66-7.83 1.28-15.68 1.77-23.61-9.63 3.4-18.88 6.86-28.33 10.28-1.26 7.52-2.65 14.94-4.02 22.37zm-31.95 9.45c9.76-2.99 19.94-5.9 29.9-8.84 1.36-7.38 2.74-14.76 3.99-22.22-9.25 3.35-18.68 6.68-27.75 10.07-1.99 7.05-4.09 14-6.14 20.99zm-31.48 9.95c9.79-3.1 19.34-6.25 29.32-9.31 2.05-6.94 4.12-13.84 6.1-20.84-9.27 3.48-18.18 7.01-27.28 10.52-2.68 6.59-5.43 13.09-8.14 19.63zm-30.84 9.96q14.11-4.63 28.49-9.2c2.69-6.48 5.41-12.92 8.06-19.44-8.93 3.44-17.81 6.9-26.57 10.38-3.31 6.12-6.65 12.16-9.98 18.26zm-30.11 9.95c9.02-3.07 18.31-6.08 27.51-9.11 3.29-6.02 6.59-11.99 9.86-18.04-8.65 3.45-17.31 6.89-25.8 10.37-3.87 5.62-7.72 11.18-11.57 16.78zm-29.76 10.47c8.91-3.13 17.65-6.31 26.73-9.41 3.8-5.5 7.58-10.97 11.39-16.49-8.49 3.48-16.74 7.02-25.07 10.54-4.38 5.13-8.7 10.24-13.05 15.36zm-28.58 10.06c8.18-2.98 16.74-5.88 25.08-8.82 4.23-5 8.43-9.97 12.69-14.98-7.76 3.29-15.79 6.53-23.4 9.84-4.83 4.66-9.6 9.31-14.37 13.96zm-28.2 10.59c8.04-3.03 15.82-6.12 24.03-9.12 4.5-4.4 8.95-8.79 13.49-13.2-7.72 3.38-15.05 6.84-22.64 10.24q-7.51 6.05-14.88 12.08zm-19.97 16.53c8.87-2.82 17.47-5.71 26.53-8.49 4.68-4.64 9.43-9.29 14.18-13.94-8.68 3.2-16.85 6.49-25.36 9.72q-7.71 6.36-15.35 12.71zm-30.03 2.71c5.24-2.1 10.76-4.15 16.07-6.23 4.07-2.83 8.02-5.67 12.15-8.5-5.48 2.57-10.62 5.2-16.03 7.78-4.05 2.32-8.21 4.62-12.19 6.95zm-25.8 15.54c6.75-2.31 13.84-4.55 20.7-6.84q7.37-5.22 14.82-10.45c-7.21 2.86-14.17 5.76-21.24 8.64q-7.14 4.33-14.28 8.65zm499.52-127.28c11.95-2.23 23.76-4.49 35.95-6.66-3.62-10.47-7.03-20.85-11.11-31.56q-16.99 3.88-33.6 7.84c3.27 10.31 5.9 20.28 8.76 30.38zm-37.64 7.25c11.81-2.28 23.5-4.59 35.47-6.83-2.84-10.07-5.44-20.01-8.69-30.28-11.24 2.69-22.14 5.46-33.22 8.19 2.43 9.79 4.37 19.32 6.44 28.92zm-37.12 7.15c11.39-2.31 23.36-4.49 35.01-6.74-2.06-9.57-3.97-19.07-6.38-28.83-10.95 2.7-22.11 5.35-32.83 8.1 1.62 9.28 2.9 18.37 4.2 27.47zm-36.49 7.85c11.56-2.45 22.66-5.01 34.43-7.42-1.3-9.08-2.55-18.15-4.15-27.4-11 2.82-21.49 5.76-32.29 8.64 0.83 8.82 1.44 17.51 2.01 26.18zm-35.95 7.75c11.17-2.47 22.55-4.89 33.92-7.31-0.56-8.64-1.14-17.3-1.96-26.09-10.7 2.85-21.34 5.71-31.84 8.61q0.11 12.49-0.12 24.79zm-35.37 7.95c10.99-2.54 22.15-5.04 33.36-7.52q0.24-12.24 0.15-24.69c-10.49 2.89-21.02 5.78-31.32 8.72-0.65 7.88-1.35 15.73-2.19 23.49zm-34.83 8.35c10.93-2.62 21.68-5.29 32.81-7.87 0.84-7.72 1.56-15.53 2.22-23.38-10.46 3-20.54 6.07-30.81 9.11-1.35 7.41-2.71 14.83-4.22 22.14zm-34.15 8.19c10.46-2.62 21.42-5.12 32.09-7.69 1.5-7.28 2.87-14.66 4.24-22.04-10.04 2.98-20.32 5.9-30.16 8.92-2.04 6.96-4.03 13.95-6.17 20.81zm-33.72 8.82c10.56-2.76 20.79-5.59 31.56-8.3 2.14-6.83 4.14-13.77 6.17-20.7-10.11 3.11-19.73 6.32-29.64 9.47-2.69 6.52-5.34 13.09-8.09 19.53zm-33.1 8.8c10.15-2.75 20.44-5.48 30.78-8.19 2.74-6.39 5.39-12.91 8.06-19.38-9.69 3.09-19.36 6.18-28.86 9.31-3.32 6.1-6.64 12.22-9.98 18.26zm-32.33 8.86c9.78-2.76 19.84-5.47 29.82-8.19 3.32-5.98 6.6-12.05 9.89-18.09-9.41 3.11-18.81 6.22-28.04 9.36q-5.85 8.49-11.67 16.92zm-31.91 9.39c9.67-2.84 19.15-5.74 29.04-8.54 3.82-5.54 7.67-11.13 11.52-16.7-9.27 3.17-18.24 6.4-27.32 9.61q-6.66 7.83-13.24 15.63zm-30.73 9.05c8.94-2.74 18.32-5.38 27.44-8.08 4.31-5.1 8.67-10.24 13.02-15.37-8.57 3.04-17.44 6.02-25.84 9.09q-7.36 7.19-14.62 14.36zm-25.91-7.31c1.07-0.5 2.2-0.98 3.28-1.48 1.24-0.85 2.53-1.7 3.79-2.54-2.39 1.33-4.69 2.68-7.07 4.02zm-33.52 26.38q12-3.96 24.24-7.87c4.86-4.06 9.78-8.13 14.71-12.19-7.7 2.94-15.48 5.86-23.04 8.83q-7.98 5.61-15.91 11.23zm-15.55-0.65c0.81-0.33 1.57-0.67 2.37-0.99q0.69-0.42 1.38-0.84c-1.24 0.61-2.51 1.22-3.75 1.83zm-36.87 18.65c5.61-1.99 11.05-4.02 16.74-6 3.8-2.32 7.66-4.63 11.47-6.96q-8.59 3.55-17.07 7.13c-3.79 1.93-7.39 3.89-11.14 5.83zm-16.46 5.89q1.7-0.61 3.41-1.22 1.96-1.02 3.91-2.05c-2.49 1.08-4.84 2.19-7.32 3.27zm604.86-189.2c4.99 11.24 9.35 22.16 13.8 33.13 12.31-2.1 24.43-4.26 36.9-6.32-5.25-11.38-10.59-22.8-16.46-34.49-11.62 2.52-22.76 5.14-34.24 7.68zm-16.99-35.39c5.56 11.28 11.32 22.65 16.26 33.63 11.43-2.54 22.55-5.16 34.13-7.66-5.79-11.43-12.3-23.19-18.78-34.94-10.66 2.97-21.08 5.98-31.61 8.97zm-18.1-36.2c6.18 11.7 11.65 23.06 17.26 34.49 10.5-2.99 20.89-6 31.52-8.96-6.55-11.89-12.79-23.65-19.97-35.84-9.64 3.43-19.28 6.86-28.81 10.31zm-20.46-36.6c6.69 11.73 13.44 23.49 19.53 34.93 9.5-3.44 19.1-6.86 28.72-10.28-7.03-11.87-14.9-24.12-22.62-36.31-8.54 3.89-17.2 7.75-25.63 11.66zm-21.87-37.36c7.3 12.06 14.23 23.93 20.95 35.71 8.4-3.89 17.03-7.75 25.55-11.62-7.78-12.3-15.63-24.63-24.06-37.23-7.46 4.39-15.09 8.76-22.44 13.14zm-23.66-37.85q11.77 18.34 22.66 36.26c7.33-4.38 14.94-8.73 22.36-13.1-8.36-12.46-17.08-25.08-26.11-37.84-6.28 4.89-12.68 9.79-18.91 14.68zm-25.49-38.38c8.39 12.37 16.72 24.7 24.49 36.78 6.21-4.87 12.58-9.75 18.85-14.63-8.97-12.65-18.38-25.51-28.02-38.46-5.1 5.43-10.25 10.89-15.32 16.31zm-27.01-39.29c9.04 12.76 17.45 25.21 25.92 37.7 5.06-5.4 10.19-10.83 15.26-16.25-9.69-13.02-19.29-26.01-29.62-39.32-3.86 5.95-7.71 11.93-11.56 17.87zm-29.05-39.42c9.43 12.64 19.1 25.39 27.89 37.74 3.83-5.91 7.67-11.87 11.51-17.8-10.06-12.91-20.93-26.19-31.67-39.41-2.58 6.49-5.14 13-7.73 19.47zm-30.5-40.8c10.22 13.24 19.51 26.05 29.18 39.03 2.58-6.44 5.12-12.91 7.68-19.37-10.98-13.53-21.47-26.83-33.06-40.63q-1.87 10.51-3.8 20.97zm-32.4-40.3c10.38 12.83 21.11 25.82 30.84 38.36q1.92-10.41 3.78-20.87c-11.01-13.04-23.05-26.55-34.76-39.91 0.09 7.51 0.12 14.97 0.14 22.42zm-34.08-41.95c11.15 13.39 21.58 26.46 32.18 39.59-0.02-7.39-0.02-14.78-0.14-22.23-11.95-13.66-23.52-27.14-36.1-41.08 1.5 8 2.74 15.84 4.06 23.72zm-35.54-41.42c11.21 12.96 22.56 25.98 33.16 38.65-1.2-7.08-2.29-14.1-3.64-21.28l-0.02-0.09v-0.09-1.63c-11.78-13.01-24.31-26.37-36.73-39.67l0.52 2.99c2.4 7.13 4.5 14.1 6.71 21.12zm-37.5-42.97c11.8 13.26 23.1 26.3 34.36 39.33-1.76-5.63-3.44-11.22-5.37-16.94l-0.02-0.05-0.02-0.09q-0.5-2.96-1.02-5.93c-12.5-13.39-24.74-26.67-37.76-40.3q1.27 3.82 2.53 7.66c2.58 5.51 4.91 10.89 7.3 16.32zm-28.41-6.34c-1.46-2.29-2.79-4.51-4.26-6.81-1.91-2.44-4.04-4.99-6.02-7.46 3.44 4.77 6.89 9.54 10.28 14.27zm-50.77-79.84c11.91 12.63 23.5 25.12 34.91 37.52-0.91-1.63-1.81-3.26-2.78-4.92l-0.02-0.04-0.02-0.04q-3.85-8.17-7.68-16.3c-12.79-12.96-25.29-25.8-38.5-38.96q4.88 8.13 9.77 16.3v0.01c1.51 2.18 2.91 4.3 4.32 6.43zm-41-42.72c11.44 11.84 22.91 23.7 33.94 35.37q-6.18-10.31-12.32-20.54c-11.86-11.74-24.28-23.72-36.67-35.69l13.6 18.97c0.51 0.64 0.96 1.25 1.45 1.89zm-42.06-43.06c11.13 11.18 21.94 22.21 32.55 33.15l-13.2-18.42c-12.1-11.67-23.63-23.1-35.94-34.87zm-38.62-38.34c8.36 8.32 16.99 16.76 25.21 25.03l-13.65-16.57c-8.55-8.08-17.56-16.36-26.44-24.59zm-35.04-34.8c1.55 1.5 2.93 2.93 4.47 4.43l-2.41-2.61c-1.24-1.14-2.43-2.27-3.66-3.41zm72.26 74.41c-1.23-1.25-2.58-2.54-3.82-3.8 1.98 2.12 3.93 4.22 5.91 6.33zm42.03 43.03c-8.89-9.2-17.29-18.19-26.38-27.49 5.2 5.99 10.02 11.81 15.15 17.76q11.77 12.71 23.09 25.22c-3.91-5.14-7.73-10.24-11.86-15.49zm40.98 42.71c-9.41-10-19.36-20.23-29.21-30.43 6.04 7.74 11.77 15.34 17.62 22.99 9.05 10.19 18.23 20.45 27.08 30.55-5.09-7.66-10.12-15.3-15.49-23.11zm40.54 43.72c-10.93-11.93-21.71-23.79-33.04-35.9 5.92 8.67 11.58 17.21 17.28 25.77 10.17 11.72 19.87 23.22 29.67 34.76-4.58-8.18-9.11-16.34-13.91-24.63zm38.51 42.32c-10.53-11.83-21.73-23.97-32.82-36.06 5.07 8.83 9.96 17.56 14.86 26.3 9.9 11.71 19.79 23.42 29.22 34.92-3.7-8.36-7.39-16.71-11.26-25.16zm18.9 63.01c-0.76-1.48-1.56-2.98-2.33-4.47l-1.83-2.72c1.46 2.43 2.71 4.77 4.16 7.19zm53.96 21.2c-10.29-12.33-21.41-25.04-32.32-37.65 2.7 8.41 5.4 16.82 7.99 25.17 9.62 12.11 19.31 24.26 28.38 36.12-1.3-7.84-2.68-15.74-4.05-23.64zm33.95 41.81c-10.44-12.97-20.61-25.82-31.57-39.03 1.38 8 2.8 16.02 4.11 23.97 9.61 12.67 18.44 24.98 27.6 37.44 0.01-7.42-0.1-14.92-0.14-22.38zm32.26 40.13c-9.55-12.33-20.17-25.14-30.37-37.77 0.04 7.53 0.17 15.12 0.15 22.61 8.91 12.08 18.09 24.29 26.42 36.1 1.32-6.93 2.52-13.97 3.8-20.94zm30.34 40.59c-9.52-12.81-18.74-25.49-28.8-38.55-1.29 7-2.51 14.07-3.85 21.03 8.75 12.5 16.64 24.59 24.91 36.87 2.6-6.42 5.16-12.9 7.74-19.35zm28.88 39.19c-8.71-12.25-18.22-24.88-27.55-37.41-2.6 6.48-5.18 12.99-7.8 19.43 8.08 11.98 16.31 24.02 23.84 35.73q5.76-8.85 11.51-17.75zm26.86 39.06c-8.38-12.37-16.75-24.74-25.7-37.38q-5.79 8.95-11.57 17.85c7.73 12.11 14.85 23.93 22.09 35.81q7.55-8.13 15.18-16.28zm25.35 38.13c-7.72-12.01-15.94-24.25-24.27-36.55q-7.65 8.2-15.24 16.35c7.18 11.77 14.26 23.49 20.89 35 6.18-4.93 12.34-9.86 18.62-14.8zm23.53 37.66c-7.21-11.87-14.74-23.9-22.53-36.05-6.31 4.95-12.49 9.9-18.7 14.85 6.7 11.67 13.03 23.17 19.21 34.59 7.32-4.47 14.56-8.94 22.02-13.39zm21.78 37.14c-6.68-11.73-13.52-23.54-20.78-35.54-7.49 4.47-14.75 8.96-22.1 13.43 6.18 11.47 12.03 22.78 17.7 33.99 8.38-3.96 16.67-7.94 25.18-11.88zm20.36 36.42c-6.04-11.39-12.78-23.1-19.44-34.77-8.54 3.95-16.86 7.94-25.27 11.92 5.65 11.2 11.24 22.37 16.36 33.31 9.45-3.48 18.79-6.99 28.35-10.46zm18.07 36.02c-5.58-11.39-11-22.7-17.14-34.35-9.59 3.48-18.96 6.99-28.45 10.5 5.17 11.13 9.74 21.97 14.42 32.86 10.36-3.01 20.7-6.02 31.17-9.01zm16.99 35.23c-4.91-10.94-10.62-22.27-16.15-33.51-10.51 3-20.88 6.02-31.28 9.04 4.64 10.74 9.51 21.6 13.58 32.06 11.21-2.54 22.52-5.07 33.85-7.59zm14.49 34.79c-4.43-10.93-8.79-21.83-13.75-33.02-11.36 2.52-22.7 5.05-33.92 7.61 4.11 10.75 7.5 21.14 11.15 31.67 12.03-2.12 24.35-4.18 36.52-6.26zm-407.63-571.01c-4.45-6.8-9.27-13.78-13.82-20.63-6.04-6.97-12.5-14.13-18.83-21.24 5.78 7.62 11.77 15.34 17.31 22.85 5.08 6.32 10.36 12.74 15.34 19.02z"/>
		</g>
	</g>
</svg>